<svg xmlns="http://www.w3.org/2000/svg" viewBox="0 0 355 355" width="355" height="355">
	<style>
		tspan { white-space:pre }
		.shp0 { fill: #f3d6a0 } 
	</style>
	<path id="Shape 2" class="shp0" d="M9.01 15.95C15.33 13.33 20.72 14.41 25.19 19.18L55.24 49C71.73 33.44 90.56 21.38 111.75 12.83C132.93 4.28 154.85 0 177.5 0C201.54 0 224.5 4.7 246.37 14.1C268.25 23.5 287.13 36.13 303 52C318.87 67.87 331.51 86.75 340.9 108.63C350.3 130.51 355 153.46 355 177.5C355 201.54 350.3 224.5 340.9 246.37C331.51 268.25 318.87 287.13 303 303C287.13 318.87 268.25 331.5 246.37 340.9C224.5 350.3 201.54 355 177.5 355C151 355 125.81 349.41 101.92 338.24C78.04 327.07 57.7 311.32 40.91 290.98C39.68 289.44 39.1 287.71 39.17 285.78C39.25 283.85 39.98 282.28 41.37 281.04L73.03 249.15C74.73 247.76 76.66 247.07 78.81 247.07C81.28 247.38 83.05 248.3 84.13 249.84C95.38 264.48 109.17 275.81 125.5 283.82C141.83 291.83 159.17 295.83 177.5 295.83C193.53 295.83 208.82 292.71 223.38 286.47C237.94 280.23 250.53 271.8 261.17 261.17C271.8 250.53 280.23 237.94 286.47 223.38C292.71 208.82 295.83 193.53 295.83 177.5C295.83 161.48 292.71 146.18 286.47 131.62C280.23 117.06 271.8 104.47 261.17 93.83C250.53 83.2 237.94 74.77 223.38 68.53C208.82 62.29 193.53 59.17 177.5 59.17C146.53 59.17 119.64 69.72 96.84 90.83L128.73 122.72C133.51 127.35 134.59 132.66 131.97 138.67C129.35 144.84 124.8 147.92 118.33 147.92L14.79 147.92C10.79 147.92 7.32 146.45 4.39 143.53C1.47 140.6 0 137.13 0 133.13L0 29.58C0 23.11 3 18.57 9.01 15.95L9.01 15.95Z" />
</svg>