<svg xmlns="http://www.w3.org/2000/svg" viewBox="0 0 376 404" width="376" height="404">
	<style>
		tspan { white-space:pre }
		.shp0 { fill: #e2d5bd } 
	</style>
	<path id="Shape 1" class="shp0" d="M134.32 334.18C132.72 335.75 130.67 336.54 128.18 336.54L111.09 336.54C108.6 336.54 106.55 335.75 104.95 334.18C103.35 332.6 102.55 330.59 102.55 328.13L102.55 143.03C102.55 140.58 103.35 138.56 104.95 136.98C106.55 135.41 108.6 134.62 111.09 134.62L128.18 134.62C130.67 134.62 132.72 135.41 134.32 136.98C135.93 138.56 136.73 140.58 136.73 143.03L136.73 328.13C136.73 330.59 135.93 332.6 134.32 334.18ZM202.69 334.18C201.09 335.75 199.04 336.54 196.55 336.54L179.45 336.54C176.96 336.54 174.91 335.75 173.31 334.18C171.71 332.6 170.91 330.59 170.91 328.13L170.91 143.03C170.91 140.58 171.71 138.56 173.31 136.98C174.91 135.41 176.96 134.62 179.45 134.62L196.55 134.62C199.04 134.62 201.09 135.41 202.69 136.98C204.29 138.56 205.09 140.58 205.09 143.03L205.09 328.13C205.09 330.59 204.29 332.6 202.69 334.18ZM271.05 334.18C269.45 335.75 267.4 336.54 264.91 336.54L247.82 336.54C245.32 336.54 243.28 335.75 241.68 334.18C240.07 332.6 239.27 330.59 239.27 328.13L239.27 143.03C239.27 140.58 240.07 138.56 241.68 136.98C243.28 135.41 245.32 134.62 247.82 134.62L264.91 134.62C267.4 134.62 269.45 135.41 271.05 136.98C272.65 138.56 273.45 140.58 273.45 143.03L273.45 328.13C273.45 330.59 272.65 332.6 271.05 334.18ZM141.27 36.55C142.51 34.97 144.03 34.01 145.81 33.65L230.46 33.65C232.24 34.01 233.75 34.97 235 36.55L247.82 67.31L128.18 67.31L141.27 36.55ZM373.6 69.67C371.99 68.1 369.95 67.31 367.45 67.31L284.94 67.31L266.24 23.4C263.57 16.92 258.77 11.4 251.82 6.84C244.88 2.28 237.85 0 230.73 0L145.27 0C138.15 0 131.12 2.28 124.18 6.84C117.23 11.4 112.43 16.92 109.76 23.4L91.06 67.31L8.55 67.31C6.05 67.31 4.01 68.1 2.4 69.67C0.8 71.25 0 73.27 0 75.72L0 92.55C0 95.01 0.8 97.02 2.4 98.6C4.01 100.17 6.05 100.96 8.55 100.96L34.18 100.96L34.18 351.27C34.18 365.82 38.36 378.22 46.73 388.47C55.1 398.72 65.16 403.85 76.91 403.85L299.09 403.85C310.84 403.85 320.9 398.55 329.27 387.94C337.63 377.34 341.82 364.77 341.82 350.22L341.82 100.96L367.45 100.96C369.95 100.96 371.99 100.17 373.6 98.6C375.2 97.02 376 95.01 376 92.55L376 75.72C376 73.27 375.2 71.25 373.6 69.67Z" />
</svg>