<?xml version="1.0" encoding="utf-8"?>
<!--
  - **************************************************************************************
  -
  - Copyright (C) 2026 FoE-Helper team - All Rights Reserved
  - You may use, distribute and modify this code under the
  - terms of the AGPL license.
  -
  - See file LICENSE.md or go to
  - https://github.com/mainIine/foe-helfer-extension/blob/master/LICENSE.md
  - for full license details.
  -
  - **************************************************************************************
  -->

<svg id="Livello_1" style="enable-background:new 0 0 100 100;" version="1.1" viewBox="0 0 50 50" xmlns="http://www.w3.org/2000/svg">
  <path fill="#ffffff" d="M 37.598 48.99 L 7.598 48.99 C 5.898 48.99 4.598 47.69 4.598 45.99 L 4.598 11.99 C 4.598 10.29 5.898 8.99 7.598 8.99 L 37.598 8.99 C 39.298 8.99 40.598 10.29 40.598 11.99 L 40.598 45.99 C 40.598 47.59 39.198 48.99 37.598 48.99 Z M 8.598 44.99 L 36.598 44.99 L 36.598 12.99 L 8.598 12.99 L 8.598 44.99 Z"/>
  <path fill="#ffffff" d="M 45.792 40.915 C 44.692 40.915 43.792 40.015 43.792 38.915 L 43.792 5.915 L 14.792 5.915 C 13.692 5.915 12.792 5.015 12.792 3.915 C 12.792 2.815 13.692 1.915 14.792 1.915 L 44.392 1.915 C 45.992 1.915 47.792 3.115 47.792 4.915 L 47.792 38.915 C 47.792 40.015 46.892 40.915 45.792 40.915 Z M 44.292 5.915 Z"/>
</svg>