<?xml version="1.0" encoding="UTF-8" standalone="no"?><!DOCTYPE svg PUBLIC "-//W3C//DTD SVG 1.1//EN" "http://www.w3.org/Graphics/SVG/1.1/DTD/svg11.dtd"><svg width="100%" height="100%" viewBox="0 0 456 456" version="1.1" xmlns="http://www.w3.org/2000/svg" xmlns:xlink="http://www.w3.org/1999/xlink" xml:space="preserve" xmlns:serif="http://www.serif.com/" style="fill-rule:evenodd;clip-rule:evenodd;stroke-linejoin:round;stroke-miterlimit:2;"><path d="M426.569,119.884c-8.881,-16.647 -33.29,-15.844 -41.301,1.106c-3.154,6.675 -2.961,14.257 0.523,20.8c27.696,51.959 28.386,114.301 1.844,166.769c-43.402,85.799 -147.244,122.276 -234.376,83.713l7.233,-14.298c4.624,-9.143 -2.893,-19.822 -13.106,-18.47l-69.078,9.144c-8.925,1.174 -13.876,10.968 -9.543,18.857c36.665,66.712 34.183,63.897 38.987,66.327c6.307,3.191 14.033,0.659 17.221,-5.645l7.365,-14.559c110.232,50.257 241.35,5.038 296.598,-104.177c33.357,-65.941 32.474,-144.284 -2.367,-209.567Zm-281.326,255.025l-61.801,8.181l61.801,-8.181Zm1.244,30.775c94.857,42.51 207.125,3.341 254.524,-90.359c28.741,-56.816 27.996,-124.324 -1.99,-180.584c-1.237,-2.321 -1.31,-5.001 -0.197,-7.348c2.785,-5.904 -2.845,1.641 0.197,7.348c4.542,60.983 32.549,120.165 1.393,181.754c-75.191,92.188 -142.38,124.507 -253.927,89.189Z" style="fill:#649625;fill-rule:nonzero;"/><path d="M27.167,336.029c8.878,16.648 33.288,15.849 41.301,-1.1c3.155,-6.674 2.963,-14.256 -0.521,-20.799c-27.688,-51.964 -28.369,-114.306 -1.82,-166.77c43.415,-85.792 147.261,-122.255 234.388,-83.679l-7.234,14.297c-4.626,9.142 2.889,19.822 13.102,18.471l69.08,-9.134c8.925,-1.172 13.877,-10.966 9.546,-18.856c-36.656,-66.717 -34.174,-63.901 -38.978,-66.332c-6.307,-3.192 -14.032,-0.661 -17.222,5.643l-7.367,14.557c-110.225,-50.272 -241.349,-5.072 -296.612,104.135c-33.367,65.937 -32.495,144.28 2.337,209.567Zm313.144,-317.79l-48.097,26.003l16.315,36.803l31.782,-62.806Zm-33.022,32.03c-94.851,-42.523 -207.125,-3.37 -254.537,90.323c-28.749,56.812 -28.013,124.32 1.965,180.584c1.237,2.322 1.309,5.002 0.196,7.348c-2.787,5.905 2.845,-1.64 -0.196,-7.348c-24.534,-69.987 -27.129,-108.999 3.035,-171.584c40.476,-83.979 145.996,-142.655 249.537,-99.323Z" style="fill:#649625;fill-rule:nonzero;"/><path d="M306.708,133l-107.208,109.887l-50.217,-47.605l-35.283,35.302l85.5,82.916l142.5,-145.208l-35.293,-35.292Z" style="fill:#649625;fill-rule:nonzero;"/></svg>